<?xml version="1.0" encoding="utf-8" standalone="no"?>
<!DOCTYPE svg PUBLIC "-//W3C//DTD SVG 1.1//EN"
  "http://www.w3.org/Graphics/SVG/1.1/DTD/svg11.dtd">
<svg xmlns:xlink="http://www.w3.org/1999/xlink" width="357.12pt" height="266.112pt" viewBox="0 0 357.12 266.112" xmlns="http://www.w3.org/2000/svg" version="1.1">
 <metadata>
  <rdf:RDF xmlns:dc="http://purl.org/dc/elements/1.1/" xmlns:cc="http://creativecommons.org/ns#" xmlns:rdf="http://www.w3.org/1999/02/22-rdf-syntax-ns#">
   <cc:Work>
    <dc:type rdf:resource="http://purl.org/dc/dcmitype/StillImage"/>
    <dc:date>2022-05-31T10:11:13.500645</dc:date>
    <dc:format>image/svg+xml</dc:format>
    <dc:creator>
     <cc:Agent>
      <dc:title>Matplotlib v3.5.1, https://matplotlib.org/</dc:title>
     </cc:Agent>
    </dc:creator>
   </cc:Work>
  </rdf:RDF>
 </metadata>
 <defs>
  <style type="text/css">*{stroke-linejoin: round; stroke-linecap: butt}</style>
 </defs>
 <g id="figure_1">
  <g id="patch_1">
   <path d="M 0 266.112 
L 357.12 266.112 
L 357.12 0 
L 0 0 
z
" style="fill: #ffffff"/>
  </g>
  <g id="axes_1">
   <g id="legend_1">
    <g id="patch_2">
     <path d="M 67.65075 250.9866 
L 289.46925 250.9866 
Q 292.92525 250.9866 292.92525 247.5306 
L 292.92525 18.5814 
Q 292.92525 15.1254 289.46925 15.1254 
L 67.65075 15.1254 
Q 64.19475 15.1254 64.19475 18.5814 
L 64.19475 247.5306 
Q 64.19475 250.9866 67.65075 250.9866 
z
" style="fill: #ffffff; opacity: 0.8; stroke: #cccccc; stroke-linejoin: miter"/>
    </g>
    <g id="patch_3">
     <path d="M 71.10675 35.1675 
L 105.66675 35.1675 
L 105.66675 23.0715 
L 71.10675 23.0715 
z
" style="stroke: #000000; stroke-linejoin: miter"/>
    </g>
    <g id="text_1">
     <!-- null -->
     <g transform="translate(119.49075 35.1675)scale(0.1728 -0.1728)">
      <defs>
       <path id="DejaVuSans-6e" d="M 3513 2113 
L 3513 0 
L 2938 0 
L 2938 2094 
Q 2938 2591 2744 2837 
Q 2550 3084 2163 3084 
Q 1697 3084 1428 2787 
Q 1159 2491 1159 1978 
L 1159 0 
L 581 0 
L 581 3500 
L 1159 3500 
L 1159 2956 
Q 1366 3272 1645 3428 
Q 1925 3584 2291 3584 
Q 2894 3584 3203 3211 
Q 3513 2838 3513 2113 
z
" transform="scale(0.015625)"/>
       <path id="DejaVuSans-75" d="M 544 1381 
L 544 3500 
L 1119 3500 
L 1119 1403 
Q 1119 906 1312 657 
Q 1506 409 1894 409 
Q 2359 409 2629 706 
Q 2900 1003 2900 1516 
L 2900 3500 
L 3475 3500 
L 3475 0 
L 2900 0 
L 2900 538 
Q 2691 219 2414 64 
Q 2138 -91 1772 -91 
Q 1169 -91 856 284 
Q 544 659 544 1381 
z
M 1991 3584 
L 1991 3584 
z
" transform="scale(0.015625)"/>
       <path id="DejaVuSans-6c" d="M 603 4863 
L 1178 4863 
L 1178 0 
L 603 0 
L 603 4863 
z
" transform="scale(0.015625)"/>
      </defs>
      <use xlink:href="#DejaVuSans-6e"/>
      <use xlink:href="#DejaVuSans-75" x="63.378906"/>
      <use xlink:href="#DejaVuSans-6c" x="126.757812"/>
      <use xlink:href="#DejaVuSans-6c" x="154.541016"/>
     </g>
    </g>
    <g id="patch_4">
     <path d="M 71.10675 60.5313 
L 105.66675 60.5313 
L 105.66675 48.4353 
L 71.10675 48.4353 
z
" style="fill: #006800; stroke: #006800; stroke-linejoin: miter"/>
    </g>
    <g id="text_2">
     <!-- wooded_area -->
     <g transform="translate(119.49075 60.5313)scale(0.1728 -0.1728)">
      <defs>
       <path id="DejaVuSans-77" d="M 269 3500 
L 844 3500 
L 1563 769 
L 2278 3500 
L 2956 3500 
L 3675 769 
L 4391 3500 
L 4966 3500 
L 4050 0 
L 3372 0 
L 2619 2869 
L 1863 0 
L 1184 0 
L 269 3500 
z
" transform="scale(0.015625)"/>
       <path id="DejaVuSans-6f" d="M 1959 3097 
Q 1497 3097 1228 2736 
Q 959 2375 959 1747 
Q 959 1119 1226 758 
Q 1494 397 1959 397 
Q 2419 397 2687 759 
Q 2956 1122 2956 1747 
Q 2956 2369 2687 2733 
Q 2419 3097 1959 3097 
z
M 1959 3584 
Q 2709 3584 3137 3096 
Q 3566 2609 3566 1747 
Q 3566 888 3137 398 
Q 2709 -91 1959 -91 
Q 1206 -91 779 398 
Q 353 888 353 1747 
Q 353 2609 779 3096 
Q 1206 3584 1959 3584 
z
" transform="scale(0.015625)"/>
       <path id="DejaVuSans-64" d="M 2906 2969 
L 2906 4863 
L 3481 4863 
L 3481 0 
L 2906 0 
L 2906 525 
Q 2725 213 2448 61 
Q 2172 -91 1784 -91 
Q 1150 -91 751 415 
Q 353 922 353 1747 
Q 353 2572 751 3078 
Q 1150 3584 1784 3584 
Q 2172 3584 2448 3432 
Q 2725 3281 2906 2969 
z
M 947 1747 
Q 947 1113 1208 752 
Q 1469 391 1925 391 
Q 2381 391 2643 752 
Q 2906 1113 2906 1747 
Q 2906 2381 2643 2742 
Q 2381 3103 1925 3103 
Q 1469 3103 1208 2742 
Q 947 2381 947 1747 
z
" transform="scale(0.015625)"/>
       <path id="DejaVuSans-65" d="M 3597 1894 
L 3597 1613 
L 953 1613 
Q 991 1019 1311 708 
Q 1631 397 2203 397 
Q 2534 397 2845 478 
Q 3156 559 3463 722 
L 3463 178 
Q 3153 47 2828 -22 
Q 2503 -91 2169 -91 
Q 1331 -91 842 396 
Q 353 884 353 1716 
Q 353 2575 817 3079 
Q 1281 3584 2069 3584 
Q 2775 3584 3186 3129 
Q 3597 2675 3597 1894 
z
M 3022 2063 
Q 3016 2534 2758 2815 
Q 2500 3097 2075 3097 
Q 1594 3097 1305 2825 
Q 1016 2553 972 2059 
L 3022 2063 
z
" transform="scale(0.015625)"/>
       <path id="DejaVuSans-5f" d="M 3263 -1063 
L 3263 -1509 
L -63 -1509 
L -63 -1063 
L 3263 -1063 
z
" transform="scale(0.015625)"/>
       <path id="DejaVuSans-61" d="M 2194 1759 
Q 1497 1759 1228 1600 
Q 959 1441 959 1056 
Q 959 750 1161 570 
Q 1363 391 1709 391 
Q 2188 391 2477 730 
Q 2766 1069 2766 1631 
L 2766 1759 
L 2194 1759 
z
M 3341 1997 
L 3341 0 
L 2766 0 
L 2766 531 
Q 2569 213 2275 61 
Q 1981 -91 1556 -91 
Q 1019 -91 701 211 
Q 384 513 384 1019 
Q 384 1609 779 1909 
Q 1175 2209 1959 2209 
L 2766 2209 
L 2766 2266 
Q 2766 2663 2505 2880 
Q 2244 3097 1772 3097 
Q 1472 3097 1187 3025 
Q 903 2953 641 2809 
L 641 3341 
Q 956 3463 1253 3523 
Q 1550 3584 1831 3584 
Q 2591 3584 2966 3190 
Q 3341 2797 3341 1997 
z
" transform="scale(0.015625)"/>
       <path id="DejaVuSans-72" d="M 2631 2963 
Q 2534 3019 2420 3045 
Q 2306 3072 2169 3072 
Q 1681 3072 1420 2755 
Q 1159 2438 1159 1844 
L 1159 0 
L 581 0 
L 581 3500 
L 1159 3500 
L 1159 2956 
Q 1341 3275 1631 3429 
Q 1922 3584 2338 3584 
Q 2397 3584 2469 3576 
Q 2541 3569 2628 3553 
L 2631 2963 
z
" transform="scale(0.015625)"/>
      </defs>
      <use xlink:href="#DejaVuSans-77"/>
      <use xlink:href="#DejaVuSans-6f" x="81.787109"/>
      <use xlink:href="#DejaVuSans-6f" x="142.96875"/>
      <use xlink:href="#DejaVuSans-64" x="204.150391"/>
      <use xlink:href="#DejaVuSans-65" x="267.626953"/>
      <use xlink:href="#DejaVuSans-64" x="329.150391"/>
      <use xlink:href="#DejaVuSans-5f" x="392.626953"/>
      <use xlink:href="#DejaVuSans-61" x="442.626953"/>
      <use xlink:href="#DejaVuSans-72" x="503.90625"/>
      <use xlink:href="#DejaVuSans-65" x="542.769531"/>
      <use xlink:href="#DejaVuSans-61" x="604.292969"/>
     </g>
    </g>
    <g id="patch_5">
     <path d="M 71.10675 86.3757 
L 105.66675 86.3757 
L 105.66675 74.2797 
L 71.10675 74.2797 
z
" style="fill: #00c0d2; stroke: #00c0d2; stroke-linejoin: miter"/>
    </g>
    <g id="text_3">
     <!-- water -->
     <g transform="translate(119.49075 86.3757)scale(0.1728 -0.1728)">
      <defs>
       <path id="DejaVuSans-74" d="M 1172 4494 
L 1172 3500 
L 2356 3500 
L 2356 3053 
L 1172 3053 
L 1172 1153 
Q 1172 725 1289 603 
Q 1406 481 1766 481 
L 2356 481 
L 2356 0 
L 1766 0 
Q 1100 0 847 248 
Q 594 497 594 1153 
L 594 3053 
L 172 3053 
L 172 3500 
L 594 3500 
L 594 4494 
L 1172 4494 
z
" transform="scale(0.015625)"/>
      </defs>
      <use xlink:href="#DejaVuSans-77"/>
      <use xlink:href="#DejaVuSans-61" x="81.787109"/>
      <use xlink:href="#DejaVuSans-74" x="143.066406"/>
      <use xlink:href="#DejaVuSans-65" x="182.275391"/>
      <use xlink:href="#DejaVuSans-72" x="243.798828"/>
     </g>
    </g>
    <g id="patch_6">
     <path d="M 71.10675 111.7395 
L 105.66675 111.7395 
L 105.66675 99.6435 
L 71.10675 99.6435 
z
" style="fill: #73fe8c; stroke: #73fe8c; stroke-linejoin: miter"/>
    </g>
    <g id="text_4">
     <!-- bushes -->
     <g transform="translate(119.49075 111.7395)scale(0.1728 -0.1728)">
      <defs>
       <path id="DejaVuSans-62" d="M 3116 1747 
Q 3116 2381 2855 2742 
Q 2594 3103 2138 3103 
Q 1681 3103 1420 2742 
Q 1159 2381 1159 1747 
Q 1159 1113 1420 752 
Q 1681 391 2138 391 
Q 2594 391 2855 752 
Q 3116 1113 3116 1747 
z
M 1159 2969 
Q 1341 3281 1617 3432 
Q 1894 3584 2278 3584 
Q 2916 3584 3314 3078 
Q 3713 2572 3713 1747 
Q 3713 922 3314 415 
Q 2916 -91 2278 -91 
Q 1894 -91 1617 61 
Q 1341 213 1159 525 
L 1159 0 
L 581 0 
L 581 4863 
L 1159 4863 
L 1159 2969 
z
" transform="scale(0.015625)"/>
       <path id="DejaVuSans-73" d="M 2834 3397 
L 2834 2853 
Q 2591 2978 2328 3040 
Q 2066 3103 1784 3103 
Q 1356 3103 1142 2972 
Q 928 2841 928 2578 
Q 928 2378 1081 2264 
Q 1234 2150 1697 2047 
L 1894 2003 
Q 2506 1872 2764 1633 
Q 3022 1394 3022 966 
Q 3022 478 2636 193 
Q 2250 -91 1575 -91 
Q 1294 -91 989 -36 
Q 684 19 347 128 
L 347 722 
Q 666 556 975 473 
Q 1284 391 1588 391 
Q 1994 391 2212 530 
Q 2431 669 2431 922 
Q 2431 1156 2273 1281 
Q 2116 1406 1581 1522 
L 1381 1569 
Q 847 1681 609 1914 
Q 372 2147 372 2553 
Q 372 3047 722 3315 
Q 1072 3584 1716 3584 
Q 2034 3584 2315 3537 
Q 2597 3491 2834 3397 
z
" transform="scale(0.015625)"/>
       <path id="DejaVuSans-68" d="M 3513 2113 
L 3513 0 
L 2938 0 
L 2938 2094 
Q 2938 2591 2744 2837 
Q 2550 3084 2163 3084 
Q 1697 3084 1428 2787 
Q 1159 2491 1159 1978 
L 1159 0 
L 581 0 
L 581 4863 
L 1159 4863 
L 1159 2956 
Q 1366 3272 1645 3428 
Q 1925 3584 2291 3584 
Q 2894 3584 3203 3211 
Q 3513 2838 3513 2113 
z
" transform="scale(0.015625)"/>
      </defs>
      <use xlink:href="#DejaVuSans-62"/>
      <use xlink:href="#DejaVuSans-75" x="63.476562"/>
      <use xlink:href="#DejaVuSans-73" x="126.855469"/>
      <use xlink:href="#DejaVuSans-68" x="178.955078"/>
      <use xlink:href="#DejaVuSans-65" x="242.333984"/>
      <use xlink:href="#DejaVuSans-73" x="303.857422"/>
     </g>
    </g>
    <g id="patch_7">
     <path d="M 71.10675 137.1033 
L 105.66675 137.1033 
L 105.66675 125.0073 
L 71.10675 125.0073 
z
" style="fill: #00d200; stroke: #00d200; stroke-linejoin: miter"/>
    </g>
    <g id="text_5">
     <!-- individual_tree -->
     <g transform="translate(119.49075 137.1033)scale(0.1728 -0.1728)">
      <defs>
       <path id="DejaVuSans-69" d="M 603 3500 
L 1178 3500 
L 1178 0 
L 603 0 
L 603 3500 
z
M 603 4863 
L 1178 4863 
L 1178 4134 
L 603 4134 
L 603 4863 
z
" transform="scale(0.015625)"/>
       <path id="DejaVuSans-76" d="M 191 3500 
L 800 3500 
L 1894 563 
L 2988 3500 
L 3597 3500 
L 2284 0 
L 1503 0 
L 191 3500 
z
" transform="scale(0.015625)"/>
      </defs>
      <use xlink:href="#DejaVuSans-69"/>
      <use xlink:href="#DejaVuSans-6e" x="27.783203"/>
      <use xlink:href="#DejaVuSans-64" x="91.162109"/>
      <use xlink:href="#DejaVuSans-69" x="154.638672"/>
      <use xlink:href="#DejaVuSans-76" x="182.421875"/>
      <use xlink:href="#DejaVuSans-69" x="241.601562"/>
      <use xlink:href="#DejaVuSans-64" x="269.384766"/>
      <use xlink:href="#DejaVuSans-75" x="332.861328"/>
      <use xlink:href="#DejaVuSans-61" x="396.240234"/>
      <use xlink:href="#DejaVuSans-6c" x="457.519531"/>
      <use xlink:href="#DejaVuSans-5f" x="485.302734"/>
      <use xlink:href="#DejaVuSans-74" x="535.302734"/>
      <use xlink:href="#DejaVuSans-72" x="574.511719"/>
      <use xlink:href="#DejaVuSans-65" x="613.375"/>
      <use xlink:href="#DejaVuSans-65" x="674.898438"/>
     </g>
    </g>
    <g id="patch_8">
     <path d="M 71.10675 162.9477 
L 105.66675 162.9477 
L 105.66675 150.8517 
L 71.10675 150.8517 
z
" style="fill: #fffac7; stroke: #fffac7; stroke-linejoin: miter"/>
    </g>
    <g id="text_6">
     <!-- no_woodland -->
     <g transform="translate(119.49075 162.9477)scale(0.1728 -0.1728)">
      <use xlink:href="#DejaVuSans-6e"/>
      <use xlink:href="#DejaVuSans-6f" x="63.378906"/>
      <use xlink:href="#DejaVuSans-5f" x="124.560547"/>
      <use xlink:href="#DejaVuSans-77" x="174.560547"/>
      <use xlink:href="#DejaVuSans-6f" x="256.347656"/>
      <use xlink:href="#DejaVuSans-6f" x="317.529297"/>
      <use xlink:href="#DejaVuSans-64" x="378.710938"/>
      <use xlink:href="#DejaVuSans-6c" x="442.1875"/>
      <use xlink:href="#DejaVuSans-61" x="469.970703"/>
      <use xlink:href="#DejaVuSans-6e" x="531.25"/>
      <use xlink:href="#DejaVuSans-64" x="594.628906"/>
     </g>
    </g>
    <g id="patch_9">
     <path d="M 71.10675 188.7921 
L 105.66675 188.7921 
L 105.66675 176.6961 
L 71.10675 176.6961 
z
" style="fill: #d7b384; stroke: #d7b384; stroke-linejoin: miter"/>
    </g>
    <g id="text_7">
     <!-- ruderal_area -->
     <g transform="translate(119.49075 188.7921)scale(0.1728 -0.1728)">
      <use xlink:href="#DejaVuSans-72"/>
      <use xlink:href="#DejaVuSans-75" x="41.113281"/>
      <use xlink:href="#DejaVuSans-64" x="104.492188"/>
      <use xlink:href="#DejaVuSans-65" x="167.96875"/>
      <use xlink:href="#DejaVuSans-72" x="229.492188"/>
      <use xlink:href="#DejaVuSans-61" x="270.605469"/>
      <use xlink:href="#DejaVuSans-6c" x="331.884766"/>
      <use xlink:href="#DejaVuSans-5f" x="359.667969"/>
      <use xlink:href="#DejaVuSans-61" x="409.667969"/>
      <use xlink:href="#DejaVuSans-72" x="470.947266"/>
      <use xlink:href="#DejaVuSans-65" x="509.810547"/>
      <use xlink:href="#DejaVuSans-61" x="571.333984"/>
     </g>
    </g>
    <g id="patch_10">
     <path d="M 71.10675 214.6365 
L 105.66675 214.6365 
L 105.66675 202.5405 
L 71.10675 202.5405 
z
" style="fill: #d4d3d4; stroke: #d4d3d4; stroke-linejoin: miter"/>
    </g>
    <g id="text_8">
     <!-- without_vegetation -->
     <g transform="translate(119.49075 214.6365)scale(0.1728 -0.1728)">
      <defs>
       <path id="DejaVuSans-67" d="M 2906 1791 
Q 2906 2416 2648 2759 
Q 2391 3103 1925 3103 
Q 1463 3103 1205 2759 
Q 947 2416 947 1791 
Q 947 1169 1205 825 
Q 1463 481 1925 481 
Q 2391 481 2648 825 
Q 2906 1169 2906 1791 
z
M 3481 434 
Q 3481 -459 3084 -895 
Q 2688 -1331 1869 -1331 
Q 1566 -1331 1297 -1286 
Q 1028 -1241 775 -1147 
L 775 -588 
Q 1028 -725 1275 -790 
Q 1522 -856 1778 -856 
Q 2344 -856 2625 -561 
Q 2906 -266 2906 331 
L 2906 616 
Q 2728 306 2450 153 
Q 2172 0 1784 0 
Q 1141 0 747 490 
Q 353 981 353 1791 
Q 353 2603 747 3093 
Q 1141 3584 1784 3584 
Q 2172 3584 2450 3431 
Q 2728 3278 2906 2969 
L 2906 3500 
L 3481 3500 
L 3481 434 
z
" transform="scale(0.015625)"/>
      </defs>
      <use xlink:href="#DejaVuSans-77"/>
      <use xlink:href="#DejaVuSans-69" x="81.787109"/>
      <use xlink:href="#DejaVuSans-74" x="109.570312"/>
      <use xlink:href="#DejaVuSans-68" x="148.779297"/>
      <use xlink:href="#DejaVuSans-6f" x="212.158203"/>
      <use xlink:href="#DejaVuSans-75" x="273.339844"/>
      <use xlink:href="#DejaVuSans-74" x="336.71875"/>
      <use xlink:href="#DejaVuSans-5f" x="375.927734"/>
      <use xlink:href="#DejaVuSans-76" x="425.927734"/>
      <use xlink:href="#DejaVuSans-65" x="485.107422"/>
      <use xlink:href="#DejaVuSans-67" x="546.630859"/>
      <use xlink:href="#DejaVuSans-65" x="610.107422"/>
      <use xlink:href="#DejaVuSans-74" x="671.630859"/>
      <use xlink:href="#DejaVuSans-61" x="710.839844"/>
      <use xlink:href="#DejaVuSans-74" x="772.119141"/>
      <use xlink:href="#DejaVuSans-69" x="811.328125"/>
      <use xlink:href="#DejaVuSans-6f" x="839.111328"/>
      <use xlink:href="#DejaVuSans-6e" x="900.292969"/>
     </g>
    </g>
    <g id="patch_11">
     <path d="M 71.10675 240.4809 
L 105.66675 240.4809 
L 105.66675 228.3849 
L 71.10675 228.3849 
z
" style="fill: #ed0038; stroke: #ed0038; stroke-linejoin: miter"/>
    </g>
    <g id="text_9">
     <!-- buildings -->
     <g transform="translate(119.49075 240.4809)scale(0.1728 -0.1728)">
      <use xlink:href="#DejaVuSans-62"/>
      <use xlink:href="#DejaVuSans-75" x="63.476562"/>
      <use xlink:href="#DejaVuSans-69" x="126.855469"/>
      <use xlink:href="#DejaVuSans-6c" x="154.638672"/>
      <use xlink:href="#DejaVuSans-64" x="182.421875"/>
      <use xlink:href="#DejaVuSans-69" x="245.898438"/>
      <use xlink:href="#DejaVuSans-6e" x="273.681641"/>
      <use xlink:href="#DejaVuSans-67" x="337.060547"/>
      <use xlink:href="#DejaVuSans-73" x="400.537109"/>
     </g>
    </g>
   </g>
  </g>
 </g>
</svg>
